<?xml version="1.0" encoding="UTF-8" standalone="no"?>
<!-- Generator: Adobe Illustrator 17.0.0, SVG Export Plug-In . SVG Version: 6.00 Build 0)  -->

<svg
   xmlns:dc="http://purl.org/dc/elements/1.1/"
   xmlns:cc="http://creativecommons.org/ns#"
   xmlns:rdf="http://www.w3.org/1999/02/22-rdf-syntax-ns#"
   xmlns:svg="http://www.w3.org/2000/svg"
   xmlns="http://www.w3.org/2000/svg"
   xmlns:xlink="http://www.w3.org/1999/xlink"
   xmlns:sodipodi="http://sodipodi.sourceforge.net/DTD/sodipodi-0.dtd"
   xmlns:inkscape="http://www.inkscape.org/namespaces/inkscape"
   version="1.1"
   x="0px"
   y="0px"
   width="136.00595"
   height="155"
   viewBox="0 0 136.00596 104.00481"
   enable-background="new 0 0 283.46 283.46"
   xml:space="preserve"
   id="svg2"
   inkscape:version="0.48.4 r9939"
   sodipodi:docname="logo_scevi.svg"><metadata
   id="metadata89"><rdf:RDF><cc:Work
       rdf:about=""><dc:format>image/svg+xml</dc:format><dc:type
         rdf:resource="http://purl.org/dc/dcmitype/StillImage" /></cc:Work></rdf:RDF></metadata><defs
   id="defs87" /><sodipodi:namedview
   pagecolor="#ffffff"
   bordercolor="#666666"
   borderopacity="1"
   objecttolerance="10"
   gridtolerance="10"
   guidetolerance="10"
   inkscape:pageopacity="0"
   inkscape:pageshadow="2"
   inkscape:window-width="1920"
   inkscape:window-height="1018"
   id="namedview85"
   showgrid="false"
   fit-margin-top="0"
   fit-margin-left="0"
   fit-margin-right="0"
   fit-margin-bottom="0"
   inkscape:zoom="0.83256899"
   inkscape:cx="80.399877"
   inkscape:cy="50.216765"
   inkscape:window-x="-8"
   inkscape:window-y="-8"
   inkscape:window-maximized="1"
   inkscape:current-layer="svg2" />
<symbol
   id="SICEV3"
   viewBox="-115.969 -106.683 278.816 213.213"
   transform="translate(-61.330121,-87.941954)">
	<g
   id="SICEV2_2_">
		<g
   id="g6">
			<path
   d="m -14.5,-106.683 c -1.635,0 -2.5,1.326 -2.5,2.961 v 88.383 c 0,1.636 0.865,2.961 2.5,2.961 1.635,0 2.5,-1.326 2.5,-2.961 v -88.383 c 0,-1.635 -0.865,-2.961 -2.5,-2.961 z"
   id="path8"
   inkscape:connector-curvature="0" />
		</g>
		<g
   id="g10">
			<path
   stroke-miterlimit="10"
   d="M -94.937,-102.127"
   id="path12"
   inkscape:connector-curvature="0"
   style="stroke:#757575;stroke-width:5.92259979;stroke-linecap:round;stroke-linejoin:round;stroke-miterlimit:10" />
		</g>
		<g
   id="g14">
			<path
   stroke-miterlimit="10"
   d="M 11.277,-56.186"
   id="path16"
   inkscape:connector-curvature="0"
   style="stroke:#757575;stroke-width:5.92259979;stroke-linecap:round;stroke-linejoin:round;stroke-miterlimit:10" />
		</g>
		<g
   id="g18">
			<path
   stroke-miterlimit="10"
   d="M 11.277,-96.669"
   id="path20"
   inkscape:connector-curvature="0"
   style="stroke:#757575;stroke-width:5.92259979;stroke-linecap:round;stroke-linejoin:round;stroke-miterlimit:10" />
		</g>
		<g
   id="g22">
			<path
   stroke-miterlimit="10"
   d="M 21.692,-101.444"
   id="path24"
   inkscape:connector-curvature="0"
   style="stroke:#757575;stroke-width:5.92259979;stroke-linecap:round;stroke-linejoin:round;stroke-miterlimit:10" />
		</g>
		<g
   id="g26">
			<path
   d="m 47.368,-88.62 c -6.124,0 -10.055,0.066 -11.732,0.198 -0.185,0.006 -0.347,0.018 -0.404,0.025 -10.085,1.19 -17.704,8.726 -18.107,17.917 -0.016,0.362 -0.562,1.74 -0.743,2.8 -0.027,0.164 -0.382,0.331 -0.382,0.499 v 12.662 l -1,34.129 v 5.051 c 0,0.507 0.517,13.009 0.97,17.364 0.096,0.927 0.777,1.989 1.258,3.28 0.08,0.216 0.306,0.411 0.36,0.567 2.014,5.789 8.06,15.875 17.677,17.073 0.148,0.026 0.323,0.044 0.398,0.05 2.354,0.196 6.869,0.258 13.376,0.183 1.636,-0.019 2.956,-1.487 2.937,-3.123 C 51.958,18.432 50.645,17 49.026,17 49.014,17 49.003,17 48.991,17 42.883,17 38.51,17.145 36.318,16.975 36.245,16.962 36.184,17.017 36.143,17.012 29.35,16.211 24.795,8.092 23.334,3.894 23.269,3.706 23.182,3.487 23.085,3.227 22.918,2.776 22.451,1.728 22.396,1.378 21.981,-2.624 22,-15.189 22,-15.316 v -5.034 l 1,-34.129 v -12.453 c 0,-0.789 0.205,-2.481 0.241,-3.288 0.31,-7.068 6.546,-11.514 12.683,-12.283 0.112,-0.004 0.137,-0.008 0.171,-0.011 1.495,-0.124 6.266,-0.25 20.655,-0.145 1.641,0.001 2.958,-1.304 2.97,-2.94 0.012,-1.635 -1.311,-2.971 -2.946,-2.983 -3.558,-0.025 -6.699,-0.038 -9.406,-0.038 z"
   id="path28"
   inkscape:connector-curvature="0" />
		</g>
		<g
   id="g30">
			<path
   stroke-miterlimit="10"
   d="M -12.249,-13.061"
   id="path32"
   inkscape:connector-curvature="0"
   style="stroke:#7575ff;stroke-width:5.92259979;stroke-linecap:round;stroke-linejoin:round;stroke-miterlimit:10" />
		</g>
		<g
   id="g34">
			<path
   stroke-miterlimit="10"
   d="M -12.249,-100.533"
   id="path36"
   inkscape:connector-curvature="0"
   style="stroke:#7575ff;stroke-width:5.92259979;stroke-linecap:round;stroke-linejoin:round;stroke-miterlimit:10" />
		</g>
		<g
   id="g38">
			<path
   d="M 47.205,-43 H 21.692 c -1.635,0 -2.961,0.865 -2.961,2.5 0,1.635 1.326,2.5 2.961,2.5 h 25.513 c 1.635,0 2.961,-0.865 2.961,-2.5 0,-1.635 -1.326,-2.5 -2.961,-2.5 z"
   id="path40"
   inkscape:connector-curvature="0" />
		</g>
		<g
   id="g42">
			<path
   d="m 63.211,-104.97 c -7.811,0 -16.28,0.116 -21.348,0.537 -0.214,0.018 -0.396,0.054 -0.557,0.086 l -0.034,0.007 c -10.72,1.282 -20.686,5.834 -28.074,12.823 -7.896,7.47 -12.315,17.01 -12.779,27.589 -0.083,1.893 -0.99,7.734 -0.995,7.792 -0.008,0.083 -0.424,0.167 -0.424,0.25 v 83.371 c 0,0.049 0.414,0.099 0.416,0.148 0.017,0.332 0.615,8.168 0.78,10.854 0.493,8.049 4.355,15.555 10.686,21.133 6.213,5.473 14.24,8.488 22.509,8.488 13.472,0 25.461,-8.071 30.505,-20.562 0.612,-1.517 -0.108,-3.242 -1.624,-3.855 -1.515,-0.612 -3.236,0.121 -3.848,1.637 C 54.289,55.568 44.484,62.185 33.44,62.185 19.294,62.185 6.752,51.391 5.939,38.125 5.784,35.608 5,28.232 5,27.412 V -55.76 c 0,-0.895 0.88,-6.035 0.962,-7.91 0.793,-18.101 15.665,-32.41 35.897,-34.798 0.081,-0.01 0.339,-0.036 0.508,-0.07 l 0.063,-0.003 c 5.672,-0.46 17.56,-0.616 32.618,-0.429 1.627,0.026 2.989,-1.289 3.009,-2.924 0.02,-1.635 -1.283,-2.977 -2.918,-2.998 -3.268,-0.041 -7.489,-0.078 -11.928,-0.078 z"
   id="path44"
   inkscape:connector-curvature="0" />
		</g>
		<g
   id="g46">
			<path
   d="m 154.418,89.673 c -4.647,0 -8.428,3.781 -8.428,8.428 0,4.647 3.781,8.428 8.428,8.428 4.647,0 8.428,-3.781 8.428,-8.428 0,-4.647 -3.78,-8.428 -8.428,-8.428 z m 0,12.756 c -2.386,0 -4.328,-1.942 -4.328,-4.328 0,-2.386 1.942,-4.328 4.328,-4.328 2.386,0 4.328,1.942 4.328,4.328 0.001,2.387 -1.941,4.328 -4.328,4.328 z"
   id="path48"
   inkscape:connector-curvature="0" />
		</g>
		<g
   id="g50">
			<path
   d="m 63.302,29.536 c -4.647,0 -8.428,3.781 -8.428,8.428 0,4.647 3.781,8.428 8.428,8.428 4.647,0 8.428,-3.781 8.428,-8.428 0,-4.647 -3.781,-8.428 -8.428,-8.428 z m 0,12.756 c -2.386,0 -4.328,-1.942 -4.328,-4.328 0,-2.386 1.942,-4.328 4.328,-4.328 2.386,0 4.328,1.942 4.328,4.328 0,2.386 -1.942,4.328 -4.328,4.328 z"
   id="path52"
   inkscape:connector-curvature="0" />
		</g>
		<g
   id="g54">
			<path
   d="m -13.236,-7.822 c -4.647,0 -8.428,3.781 -8.428,8.428 0,4.647 3.781,8.428 8.428,8.428 4.647,0 8.428,-3.781 8.428,-8.428 0,-4.647 -3.78,-8.428 -8.428,-8.428 z m 0,12.757 c -2.386,0 -4.328,-1.942 -4.328,-4.328 0,-2.386 1.942,-4.328 4.328,-4.328 2.386,0 4.328,1.942 4.328,4.328 0,2.386 -1.941,4.328 -4.328,4.328 z"
   id="path56"
   inkscape:connector-curvature="0" />
		</g>
		<g
   id="g58">
			<path
   d="m -107.541,-55.202 c -4.648,0 -8.428,3.781 -8.428,8.428 0,4.647 3.781,8.428 8.428,8.428 4.647,0 8.428,-3.781 8.428,-8.428 0,-4.648 -3.781,-8.428 -8.428,-8.428 z m 0,12.756 c -2.386,0 -4.328,-1.942 -4.328,-4.328 0,-2.386 1.942,-4.328 4.328,-4.328 2.386,0 4.328,1.942 4.328,4.328 0,2.386 -1.942,4.328 -4.328,4.328 z"
   id="path60"
   inkscape:connector-curvature="0" />
		</g>
		<g
   id="g62">
			<path
   stroke-miterlimit="10"
   d="M -45.489,-98.368"
   id="path64"
   inkscape:connector-curvature="0"
   style="stroke:#757575;stroke-width:5.92259979;stroke-linecap:round;stroke-linejoin:round;stroke-miterlimit:10" />
		</g>
		<g
   id="g66">
			<path
   stroke-miterlimit="10"
   d="M -107.624,-48.359"
   id="path68"
   inkscape:connector-curvature="0"
   style="stroke:#757575;stroke-width:5.92259979;stroke-linecap:round;stroke-linejoin:round;stroke-miterlimit:10" />
		</g>
		<g
   id="g70">
			<path
   d="m -61.161,-105.097 c -0.272,0 -0.543,0.003 -0.816,0.01 -5.002,0.117 -8.336,0.275 -10.192,0.483 -10.88,1.219 -20.912,6.789 -28.249,15.683 -7.189,8.717 -11.148,19.802 -11.148,31.213 0,1.052 0.035,2.114 0.103,3.156 0.107,1.632 1.512,2.87 3.149,2.761 1.632,-0.107 2.868,-1.517 2.761,-3.149 -0.06,-0.914 -0.09,-1.845 -0.09,-2.768 0,-20.852 14.993,-38.866 34.134,-41.011 1.658,-0.186 4.912,-0.337 9.672,-0.448 7.797,-0.176 15.25,2.811 21,8.428 6.02,5.881 9.473,14.059 9.473,22.438 0,10.075 -3.854,18.839 -10.057,22.872 -2.904,1.888 -8.021,4.214 -12.969,6.463 -4.166,1.894 -8.101,3.683 -10.794,5.237 -10.062,5.807 -16.312,17.463 -16.312,30.42 0,20.109 16.35,36.468 36.447,36.468 14.365,0 27.46,-8.664 33.362,-22.071 0.659,-1.497 -0.02,-3.245 -1.518,-3.903 -1.497,-0.659 -3.244,0.021 -3.903,1.517 -4.956,11.26 -15.923,18.535 -27.941,18.535 -16.831,0 -30.524,-13.703 -30.524,-30.545 0,-10.847 5.116,-20.538 13.35,-25.29 2.445,-1.411 6.253,-3.142 10.285,-4.975 5.147,-2.34 10.469,-4.759 13.746,-6.889 7.985,-5.191 12.752,-15.597 12.752,-27.837 0,-9.964 -4.103,-19.687 -11.257,-26.675 -6.703,-6.547 -15.362,-10.123 -24.464,-10.123 z"
   id="path72"
   inkscape:connector-curvature="0" />
		</g>
		<g
   id="g74">
			<path
   d="m 100.47,-105.544 c -5.117,0 -9.546,3.769 -10.376,8.797 l -2.186,8.307 c -0.012,0.047 -0.024,0.094 -0.033,0.142 L 62.816,30.405 c -0.338,1.6 0.685,3.171 2.285,3.509 1.601,0.338 3.171,-0.686 3.509,-2.286 l 25.044,-118.631 2.206,-8.382 c 0.028,-0.106 0.05,-0.213 0.066,-0.322 0.329,-2.231 2.282,-3.914 4.544,-3.914 2.173,0 4.066,1.541 4.5,3.665 l 1.562,7.203 14.454,113.4 4.861,44.299 c 0.4,4.108 1.754,8.533 1.812,8.719 0.022,0.071 0.046,0.141 0.073,0.21 3.169,8.064 9.88,15.246 17.953,19.214 1.467,0.721 3.242,0.117 3.964,-1.352 0.721,-1.468 0.116,-3.242 -1.352,-3.964 -6.747,-3.316 -12.35,-9.274 -15.01,-15.955 -0.192,-0.644 -1.237,-4.261 -1.55,-7.483 l -4.868,-44.362 c -0.002,-0.017 -0.004,-0.034 -0.006,-0.051 L 112.391,-89.63 c -0.011,-0.085 -0.025,-0.169 -0.044,-0.253 l -1.582,-7.295 c -0.988,-4.833 -5.321,-8.366 -10.295,-8.366 z"
   id="path76"
   inkscape:connector-curvature="0" />
		</g>
	</g>
	<polygon
   display="none"
   points="-116,-106 -116,106 163,106 163,-106 "
   id="polygon78"
   style="fill:none;display:none" />
</symbol>

<g
   id="logo"
   transform="translate(-61.330121,-87.941954)">
	
		<use
   xlink:href="#SICEV3"
   width="278.81601"
   height="213.213"
   id="XMLID_1_"
   x="-115.969"
   y="-106.683"
   transform="matrix(0.4878,0,0,-0.4878,147.81663,97.008715)"
   overflow="visible"
   style="overflow:visible" />
</g>
</svg>